M48
;GenerationSoftware,Autodesk,EAGLE,8.6.3*%
;CreationDate,2019-03-16T18:42:50Z*%
FMAT,2
ICI,OFF
METRIC,TZ,000.000
T2C1.000
T1C1.100
%
G90
M71
T1
X22225Y53975
X27305Y53975
T2
X13335Y46355
X13335Y43815
X13335Y41275
X13335Y38735
X13335Y36195
X13335Y33655
X13335Y31115
X13335Y28575
X13335Y26035
X13335Y23495
X13335Y20955
X13335Y18415
X13335Y15875
X13335Y13335
X13335Y10795
X13335Y8255
X13335Y5715
X13335Y3175
X15875Y3175
X15875Y5715
X15875Y8255
X15875Y10795
X15875Y13335
X15875Y15875
X15875Y18415
X15875Y20955
X15875Y23495
X15875Y26035
X15875Y28575
X15875Y31115
X15875Y33655
X15875Y36195
X15875Y38735
X15875Y41275
X15875Y43815
X15875Y46355
X5715Y46355
X3175Y46355
X27305Y33815
X27305Y36315
X27305Y38815
X27305Y41315
X27305Y43855
X27305Y31315
X3295Y56515
X5795Y56515
X8295Y56515
X10795Y56515
X27305Y13495
X27305Y15995
X27305Y18495
X27305Y20995
X27305Y23535
X27305Y10995
X27305Y8495
X27305Y5995
X36195Y8175
X36195Y5675
X36195Y3175
X36195Y31035
X36195Y28535
X36195Y26035
M30